<?xml version="1.0" standalone="no"?>
<!DOCTYPE svg PUBLIC "-//W3C//DTD SVG 20010904//EN"
 "http://www.w3.org/TR/2001/REC-SVG-20010904/DTD/svg10.dtd">
<svg version="1.0" xmlns="http://www.w3.org/2000/svg"
 width="275.000000pt" height="183.000000pt" viewBox="0 0 275.000000 183.000000"
 preserveAspectRatio="xMidYMid meet">

<g transform="translate(0.000000,183.000000) scale(0.100000,-0.100000)"
fill="#000000" stroke="none">
<path d="M0 915 l0 -915 1375 0 1375 0 0 915 0 915 -1375 0 -1375 0 0 -915z
m897 660 c0 -8 -4 -15 -9 -15 -10 0 -11 14 -1 23 9 10 10 9 10 -8z m793 -95
c-12 -8 -12 -10 5 -10 19 -1 19 -1 2 -11 -10 -6 -32 -7 -50 -4 -29 6 -30 6
-13 -8 15 -11 16 -16 6 -22 -8 -5 -11 -4 -7 2 9 14 -18 24 -39 16 -13 -5 -13
-8 -2 -15 10 -8 9 -9 -4 -5 -18 6 -71 -30 -63 -43 3 -4 -3 -14 -12 -21 -14
-12 -16 -12 -8 1 8 13 7 13 -8 1 -20 -16 -22 -25 -4 -16 6 4 0 -4 -14 -17 -39
-34 -55 -68 -38 -80 11 -8 10 -9 -3 -4 -10 3 -18 1 -18 -3 0 -5 -3 -17 -7 -27
-4 -12 -3 -15 5 -10 7 4 12 2 12 -4 0 -7 -6 -10 -12 -7 -17 6 -11 52 13 99 41
81 124 151 217 184 44 16 63 17 42 4z m115 -11 c-5 -7 -54 -4 -61 4 -3 3 11 4
30 4 19 -1 33 -4 31 -8z m65 -15 c0 -2 -8 0 -18 5 -13 7 -23 6 -32 -2 -12 -10
-12 -9 -1 5 10 14 18 15 32 7 10 -5 19 -12 19 -15z m45 -2 c11 -2 27 -9 35
-16 8 -7 23 -16 33 -19 9 -4 17 -11 17 -18 0 -6 -6 -9 -12 -6 -7 2 -24 8 -38
12 -24 7 -24 7 -5 -9 22 -17 10 -22 -15 -6 -12 7 -12 12 -2 22 22 22 12 32
-11 10 -13 -12 -26 -19 -30 -16 -3 3 -11 3 -17 -1 -9 -6 -9 -10 1 -16 9 -5 -4
-6 -31 -3 -37 5 -48 3 -60 -12 -12 -16 -12 -17 0 -6 21 19 60 15 60 -5 0 -15
2 -15 9 -4 8 12 14 13 36 3 31 -14 38 -15 31 -4 -3 5 1 9 9 9 10 0 12 -4 5
-12 -6 -7 -2 -21 10 -40 11 -17 20 -24 20 -17 0 7 5 10 10 7 6 -4 8 -10 6 -14
-3 -4 9 -18 27 -31 l32 -24 -28 37 c-15 20 -25 42 -21 48 4 8 1 8 -13 1 -15
-8 -20 -8 -20 2 0 8 10 12 26 10 15 -2 33 1 41 7 13 8 13 11 -2 22 -11 9 -14
18 -7 28 7 11 9 11 9 1 0 -14 29 -47 41 -47 16 0 19 -13 4 -25 -12 -10 -15
-10 -15 4 0 9 -4 16 -10 16 -5 0 -7 -7 -4 -15 4 -8 1 -22 -5 -29 -10 -12 -8
-13 9 -9 11 3 23 9 26 14 3 5 13 9 22 8 12 0 11 -3 -5 -9 -16 -7 -21 -14 -16
-27 6 -16 4 -16 -9 -5 -14 11 -16 10 -11 -7 3 -14 14 -21 29 -21 16 0 22 4 18
14 -3 7 1 16 9 19 11 4 13 0 9 -16 -7 -26 -27 -49 -36 -40 -3 4 -6 4 -6 0 0
-3 8 -13 17 -22 19 -20 30 -110 11 -99 -8 5 -9 2 -5 -9 3 -10 3 -17 -2 -17 -5
0 -11 9 -14 20 -7 27 -23 25 -43 -5 -9 -14 -20 -22 -26 -19 -19 12 -39 -18
-33 -52 4 -27 2 -32 -11 -27 -9 3 -27 -6 -46 -23 l-30 -29 29 45 c24 37 29 53
25 88 -4 38 -2 42 14 36 12 -3 15 -2 8 3 -13 9 -15 43 -2 43 16 0 8 25 -24 72
-34 49 -48 59 -48 33 0 -9 -6 -12 -16 -8 -15 6 -15 19 2 75 4 12 0 15 -15 11
-12 -3 -21 -17 -26 -39 -6 -35 -12 -39 -39 -28 -11 4 -13 11 -5 31 13 35 11
53 -6 53 -8 0 -17 -14 -21 -35 -7 -37 -15 -38 -81 -14 -15 6 -23 4 -27 -7 -10
-25 -7 -34 9 -34 8 0 15 -5 15 -11 0 -5 5 -7 10 -4 6 3 10 3 10 -2 0 -14 -58
-204 -64 -210 -3 -4 -17 6 -30 20 -13 14 -21 29 -18 32 4 3 -2 3 -11 -1 -11
-4 -17 -2 -15 4 2 6 -6 17 -16 25 -19 14 -17 15 19 13 35 -1 39 2 47 30 8 31
36 42 50 20 6 -8 8 -8 8 0 0 26 -25 32 -65 17 -22 -8 -47 -17 -57 -20 -19 -6
-29 -45 -16 -67 6 -11 5 -16 -4 -17 -7 0 2 -5 20 -10 18 -5 30 -14 27 -19 -3
-5 1 -7 9 -4 11 4 14 0 11 -16 -6 -33 -10 -36 -51 -39 -10 -1 -14 -7 -10 -16
3 -8 1 -15 -4 -15 -6 0 -10 5 -10 11 0 5 -5 7 -12 3 -6 -4 -8 -3 -5 3 4 6 -10
25 -30 43 -33 31 -35 34 -18 46 16 12 17 14 2 20 -10 3 -17 16 -16 28 0 12 3
16 6 7 4 -11 7 -11 13 0 5 8 2 17 -7 24 -17 13 -9 40 9 29 6 -4 8 -1 6 7 -3 8
-11 13 -18 11 -10 -2 -9 3 2 20 9 13 20 23 26 23 6 0 14 4 19 9 5 5 3 6 -4 2
-9 -5 -13 1 -13 20 0 22 2 25 15 14 16 -13 18 -9 15 28 -1 19 3 23 22 20 16
-2 22 1 20 11 -2 8 3 18 10 22 19 13 30 11 22 -3 -4 -8 -3 -10 2 -5 5 5 9 14
9 19 0 25 84 57 155 60 73 3 100 -2 100 -17 0 -8 5 -15 10 -15 6 0 10 4 10 9
0 5 9 7 20 4 14 -4 20 0 20 11 0 10 -6 13 -15 10 -10 -4 -15 0 -15 12 0 11 4
15 8 9 4 -5 16 -12 27 -13z m75 -87 c11 -13 9 -15 -11 -11 -13 3 -26 5 -29 5
-4 1 21 20 26 21 1 0 7 -7 14 -15z m-191 -152 c8 -14 10 -15 11 -3 0 13 2 13
9 1 13 -20 3 -39 -22 -47 -12 -4 -25 -12 -29 -18 -15 -23 -21 6 -9 44 13 43
24 50 40 23z m130 -19 c6 -15 9 -29 6 -32 -2 -3 0 -10 5 -17 12 -15 -15 -55
-38 -55 -13 0 -12 3 6 16 23 16 31 50 9 41 -14 -5 -39 17 -30 27 4 3 1 6 -5 6
-7 0 -12 -6 -12 -12 0 -25 -19 -42 -49 -44 -18 -1 -28 2 -25 8 3 5 11 7 17 5
17 -6 47 11 47 26 0 17 32 57 46 57 6 0 16 -12 23 -26z m-333 -33 c0 -11 -5
-17 -13 -14 -7 3 -13 0 -13 -6 0 -6 -4 -11 -8 -11 -5 0 -9 7 -9 15 0 8 4 12 8
10 3 -3 12 2 19 10 16 19 16 19 16 -4z m241 -5 c-4 -9 -13 -13 -22 -10 -14 6
-13 8 2 19 21 16 28 12 20 -9z m303 4 c0 -5 -2 -10 -4 -10 -3 0 -8 5 -11 10
-3 6 -1 10 4 10 6 0 11 -4 11 -10z m-723 -32 c-3 -8 -6 -5 -6 6 -1 11 2 17 5
13 3 -3 4 -12 1 -19z m720 6 c-3 -3 -12 -4 -19 -1 -8 3 -5 6 6 6 11 1 17 -2
13 -5z m20 -13 c-1 -11 -9 -22 -19 -24 -22 -6 -23 -2 0 22 22 25 21 24 19 2z
m-392 -31 c19 -8 19 -9 1 -9 -26 -1 -9 -16 26 -25 17 -4 28 -1 32 7 3 6 4 -6
1 -28 -5 -40 -5 -40 10 -15 13 21 15 22 13 5 -2 -11 -14 -25 -27 -32 -21 -10
-27 -9 -42 8 -18 20 -39 25 -39 9 0 -5 -7 -10 -15 -10 -18 0 -18 0 -4 56 12
47 13 47 44 34z m301 -12 c4 -6 3 -8 -3 -5 -6 4 -16 0 -23 -8 -10 -12 -10 -15
1 -15 9 -1 8 -4 -4 -11 -9 -6 -14 -15 -11 -21 4 -7 2 -8 -4 -4 -7 4 -12 2 -12
-3 0 -6 7 -11 15 -11 9 0 15 -10 15 -26 0 -19 -5 -25 -17 -22 -22 4 -46 50
-31 59 7 4 7 9 -1 14 -9 5 -9 10 0 21 6 7 15 12 19 9 4 -2 15 4 25 15 21 23
22 24 31 8z m-632 -35 c4 -9 1 -21 -5 -27 -9 -8 -10 -8 -5 1 3 6 2 14 -4 18
-12 8 -13 25 -1 25 5 0 12 -8 15 -17z m676 -19 c0 -2 -7 -4 -15 -4 -8 0 -15 4
-15 10 0 5 7 7 15 4 8 -4 15 -8 15 -10z m26 -40 c-20 -60 -69 -137 -110 -171
-41 -35 -145 -83 -176 -82 -23 0 -23 1 -5 9 11 5 16 9 12 9 -5 1 -5 6 -1 12 5
8 8 8 14 0 8 -13 40 -4 40 11 0 6 -6 5 -15 -2 -9 -7 -15 -8 -15 -2 0 15 26 22
39 9 15 -15 21 -6 14 21 -5 22 -7 22 -30 6 -14 -9 -22 -11 -19 -5 10 16 -1 14
-30 -5 -19 -13 -28 -14 -37 -5 -6 6 -18 11 -26 11 -14 0 -14 -1 -1 -10 10 -6
11 -10 3 -10 -7 0 -13 -7 -13 -15 0 -8 -5 -15 -11 -15 -6 0 -9 7 -5 15 3 8 1
15 -5 15 -6 0 -8 4 -4 9 3 5 -4 12 -14 16 -12 4 -18 12 -14 21 3 7 0 14 -7 14
-9 0 -11 14 -8 49 4 38 2 48 -9 44 -7 -3 -13 0 -13 7 0 6 8 10 18 8 13 -3 16
-12 14 -41 -3 -45 17 -50 43 -11 9 15 12 23 6 20 -7 -5 -9 -1 -5 9 6 14 9 13
26 -5 11 -12 27 -19 35 -16 8 3 20 6 26 6 7 0 6 4 -3 10 -13 8 -12 10 5 11 11
1 25 3 30 3 6 1 24 11 39 24 31 24 36 25 51 14 20 -14 9 -43 -23 -62 -17 -11
-32 -21 -32 -23 0 -9 41 1 57 14 21 18 73 24 73 9 0 -10 -6 -12 -40 -14 -8 -1
-13 -6 -10 -11 3 -6 14 -9 25 -7 11 1 26 3 34 4 17 2 46 48 68 110 9 26 19 46
21 43 2 -2 -3 -25 -12 -51z m-656 15 c0 -11 -4 -17 -10 -14 -5 3 -10 13 -10
21 0 8 5 14 10 14 6 0 10 -9 10 -21z m617 -7 c-9 -2 -14 -8 -11 -14 4 -7 2 -8
-4 -4 -22 13 -14 35 11 28 18 -5 19 -7 4 -10z m-633 -29 c4 -9 2 -21 -4 -27
-7 -7 -10 -7 -10 1 0 6 -3 18 -6 27 -3 9 -2 16 4 16 5 0 13 -8 16 -17z m46
-14 c0 -18 -2 -19 -15 -9 -8 7 -15 16 -15 21 0 5 7 9 15 9 9 0 15 -9 15 -21z
m148 0 c3 -11 1 -11 -8 1 -9 12 -10 9 -5 -14 5 -26 4 -27 -9 -13 -9 9 -13 23
-10 32 7 18 26 15 32 -6z m-115 -20 c-6 -6 -9 -19 -5 -28 5 -14 4 -14 -11 -2
-16 13 -16 14 0 27 22 16 31 18 16 3z m-43 -29 c7 -16 16 -28 20 -27 12 3 13
-17 1 -21 -6 -2 -11 1 -11 6 0 5 -9 19 -20 32 -21 25 -26 40 -11 40 5 0 14
-13 21 -30z m197 -14 c3 -40 -5 -49 -28 -33 -24 19 -31 46 -10 40 11 -3 21 2
24 11 9 23 12 20 14 -18z m-117 -27 c0 -4 -7 -6 -15 -3 -8 4 -15 10 -15 15 0
4 7 6 15 3 8 -4 15 -10 15 -15z m-15 -18 c7 -12 -12 -24 -25 -16 -11 7 -4 25
10 25 5 0 11 -4 15 -9z m55 -6 c14 -16 10 -18 -14 -9 -9 3 -16 10 -16 15 0 14
16 11 30 -6z m95 -13 c-3 -3 0 -11 6 -19 9 -10 8 -17 -2 -30 -12 -15 -12 -16
4 -10 11 4 16 3 12 -3 -10 -16 -38 -12 -31 5 3 8 1 26 -3 38 -7 18 -6 24 5 24
8 0 12 -3 9 -5z m-45 -12 c13 -8 13 -10 -2 -10 -9 0 -20 5 -23 10 -8 13 5 13
25 0z m20 -37 c0 -15 -2 -15 -24 -7 -22 9 -20 20 4 20 11 0 20 -6 20 -13z
m120 -7 c0 -3 -4 -8 -10 -11 -5 -3 -10 -1 -10 4 0 6 5 11 10 11 6 0 10 -2 10
-4z"/>
<path d="M1728 1423 c6 -2 18 -2 25 0 6 3 1 5 -13 5 -14 0 -19 -2 -12 -5z"/>
<path d="M1798 1423 c6 -2 18 -2 25 0 6 3 1 5 -13 5 -14 0 -19 -2 -12 -5z"/>
<path d="M1896 1298 c3 -5 10 -6 15 -3 13 9 11 12 -6 12 -8 0 -12 -4 -9 -9z"/>
<path d="M1646 1135 c-3 -8 -1 -15 4 -15 6 0 10 7 10 15 0 8 -2 15 -4 15 -2 0
-6 -7 -10 -15z"/>
<path d="M1636 1095 c-3 -8 -1 -15 4 -15 6 0 10 7 10 15 0 8 -2 15 -4 15 -2 0
-6 -7 -10 -15z"/>
<path d="M1961 1083 c-1 -6 -4 -20 -7 -30 -5 -17 -5 -17 6 0 6 10 9 23 6 30
-3 9 -5 9 -5 0z"/>
<path d="M1486 1063 c-6 -14 -5 -15 5 -6 7 7 10 15 7 18 -3 3 -9 -2 -12 -12z"/>
<path d="M1510 1060 c0 -5 5 -10 11 -10 5 0 7 5 4 10 -3 6 -8 10 -11 10 -2 0
-4 -4 -4 -10z"/>
<path d="M1508 1018 c2 -10 8 -18 13 -18 5 0 9 8 9 18 0 10 -6 19 -14 19 -8 0
-11 -8 -8 -19z"/>
<path d="M1565 1031 c-3 -5 -1 -12 4 -15 5 -3 11 1 15 9 6 16 -9 21 -19 6z"/>
<path d="M1778 1022 c19 -21 32 -19 32 6 0 15 -2 15 -10 2 -6 -10 -10 -11 -10
-2 0 6 -7 12 -15 12 -12 0 -12 -3 3 -18z"/>
<path d="M1995 1039 c-3 -4 2 -6 10 -5 21 3 28 13 10 13 -9 0 -18 -4 -20 -8z"/>
<path d="M1982 849 c-13 -5 -20 -13 -17 -19 3 -5 0 -10 -8 -10 -7 0 -14 -6
-14 -14 0 -19 27 -14 65 12 46 33 29 54 -26 31z m48 -3 c0 -3 -4 -8 -10 -11
-5 -3 -10 -1 -10 4 0 6 5 11 10 11 6 0 10 -2 10 -4z m-30 -16 c0 -5 -5 -10
-11 -10 -5 0 -7 5 -4 10 3 6 8 10 11 10 2 0 4 -4 4 -10z"/>
</g>
</svg>
